<?xml version="1.0" encoding="utf-8"?>
<!DOCTYPE svg PUBLIC "-//W3C//DTD SVG 20010904//EN" "http://www.w3.org/TR/2001/REC-SVG-20010904/DTD/svg10.dtd">
<svg version="1.0" xmlns="http://www.w3.org/2000/svg" width="116pt" height="100pt" viewBox="0 0 116 100" style="" preserveAspectRatio="xMidYMid meet">
<g fill="#ffff" stroke="#ffff">
<path d="M 22.000 26.826 C 9.885 32.841 0.383 38.155 0.232 39.000 C 0.079 39.862 1.912 41.725 4.546 43.382 C 10.356 47.037 11.717 49.181 12.560 56.000 C 13.030 59.799 13.880 62.010 15.311 63.148 L 17.382 64.797 15.083 77.957 C 12.766 91.225 12.670 97.443 14.962 85.781 C 16.078 80.106 17.192 78.060 19.190 78.015 C 19.569 78.007 20.056 79.688 20.272 81.750 L 20.664 85.500 20.832 81.250 C 21.001 76.972 22.461 75.499 23.311 78.750 C 23.565 79.723 23.819 79.156 23.884 77.472 C 23.948 75.807 24.888 73.684 25.973 72.756 C 27.836 71.160 28.236 71.202 33.223 73.524 C 42.385 77.789 55.999 76.575 68.180 70.407 C 70.755 69.103 73.567 67.028 74.430 65.796 C 76.402 62.981 76.401 58.115 74.429 55.505 C 73.135 53.793 72.787 53.722 71.976 55.005 C 71.456 55.827 71.024 57.930 71.015 59.679 C 70.996 63.628 69.157 65.514 62.417 68.494 C 51.306 73.408 43.672 73.806 32.617 70.048 C 28.876 68.777 27.372 67.694 26.874 65.913 C 25.930 62.536 25.848 55.999 26.750 56.005 C 27.163 56.007 28.850 57.265 30.500 58.801 C 32.150 60.336 35.646 63.062 38.269 64.858 C 43.838 68.670 44.272 68.610 55.000 62.555 C 59.125 60.227 66.173 56.384 70.663 54.015 C 75.838 51.284 78.644 49.236 78.331 48.420 C 78.041 47.664 79.420 46.296 81.668 45.110 C 83.776 43.998 85.229 43.069 84.897 43.044 C 84.565 43.020 75.461 46.375 64.664 50.500 C 53.868 54.625 43.711 58.000 42.094 58.000 C 37.470 58.000 28.835 55.733 28.317 54.383 C 28.058 53.710 29.003 51.088 30.416 48.558 L 32.985 43.957 30.042 45.478 C 28.424 46.315 26.147 47.000 24.982 47.000 C 23.320 47.000 23.002 47.430 23.500 49.000 C 23.950 50.419 23.680 51.000 22.567 51.000 C 20.864 51.000 20.447 52.540 21.906 53.442 C 22.404 53.750 22.560 54.968 22.251 56.149 C 21.725 58.159 21.607 58.183 20.402 56.536 C 19.234 54.938 19.021 55.086 18.093 58.138 C 17.172 61.167 17.092 60.886 17.285 55.306 C 17.487 49.484 17.295 48.900 14.094 45.597 C 11.341 42.757 10.916 41.806 11.880 40.644 C 14.158 37.899 45.929 20.999 48.743 21.035 C 50.259 21.055 52.625 21.714 54.000 22.500 C 56.753 24.074 59.010 24.414 58.982 23.250 C 58.944 21.669 48.898 16.003 46.262 16.076 C 44.743 16.117 33.825 20.955 22.000 26.826 "/></g>
<g fill="#ffff" stroke="#ffff">
<path d="M 65.909 30.500 C 65.859 30.775 65.777 32.463 65.726 34.250 C 65.638 37.328 65.855 37.530 69.817 38.067 C 72.118 38.379 74.000 38.295 74.000 37.880 C 74.000 37.465 75.533 37.375 77.407 37.679 C 80.383 38.161 81.024 37.868 82.465 35.366 C 83.832 32.991 84.036 32.885 83.651 34.749 C 83.088 37.483 84.560 38.610 86.544 36.964 C 87.569 36.113 88.000 36.087 88.000 36.878 C 88.000 37.495 88.450 38.000 89.000 38.000 C 89.550 38.000 90.000 37.315 90.000 36.477 C 90.000 35.142 90.308 35.156 92.492 36.587 C 95.068 38.274 98.000 37.922 98.000 35.924 C 98.000 35.298 97.325 35.045 96.500 35.362 C 95.485 35.751 95.000 35.311 95.000 34.000 C 95.000 32.689 95.485 32.249 96.500 32.638 C 97.450 33.003 98.000 32.625 98.000 31.607 C 98.000 29.734 94.007 29.393 92.281 31.119 C 90.839 32.561 83.267 32.467 81.482 30.985 C 79.718 29.521 75.793 30.088 75.198 31.891 C 74.846 32.958 75.410 33.126 77.620 32.611 C 79.757 32.113 80.113 32.205 79.000 32.970 C 77.667 33.886 77.667 34.109 79.000 34.985 C 79.825 35.526 80.028 35.976 79.450 35.985 C 78.873 35.993 77.804 35.438 77.075 34.750 C 76.015 33.750 75.658 33.750 75.292 34.750 C 74.335 37.359 72.762 35.941 73.350 33.000 C 73.849 30.504 73.629 30.000 72.038 30.000 C 70.631 30.000 70.020 30.857 69.723 33.250 L 69.320 36.500 69.160 33.250 C 69.054 31.099 68.493 30.000 67.500 30.000 C 66.675 30.000 65.959 30.225 65.909 30.500 "/></g>
<g fill="#ffff" stroke="#ffff">
<path d="M 55.000 34.000 C 55.000 36.200 55.450 38.000 56.000 38.000 C 56.550 38.000 57.000 37.298 57.000 36.441 C 57.000 35.552 57.478 35.177 58.112 35.569 C 58.723 35.947 59.616 35.636 60.096 34.878 C 60.744 33.855 60.973 34.080 60.985 35.750 C 61.013 39.884 63.528 38.226 63.639 34.000 C 63.742 30.081 62.032 28.521 60.446 31.087 C 59.962 31.870 59.470 31.870 58.687 31.087 C 56.423 28.823 55.000 29.947 55.000 34.000 "/></g>
<g fill="#ffff" stroke="#ffff">
<path d="M 44.000 37.441 C 44.000 38.784 43.550 40.160 43.000 40.500 C 40.537 42.022 43.556 44.491 46.500 43.362 C 48.465 42.607 48.423 38.566 46.429 36.571 C 44.320 34.463 44.000 34.577 44.000 37.441 "/></g>
<g fill="#ffff" stroke="#ffff">
<path d="M 60.000 24.800 C 60.000 25.460 60.540 26.000 61.200 26.000 C 62.133 26.000 62.133 25.733 61.200 24.800 C 60.267 23.867 60.000 23.867 60.000 24.800 "/></g>
</svg>
